<svg xmlns="http://www.w3.org/2000/svg" version="1.1" xmlns:xlink="http://www.w3.org/1999/xlink" xmlns:svgjs="http://svgjs.dev/svgjs" width="1500" height="1500" viewBox="0 0 1500 1500"><rect width="1500" height="1500" fill="#000000"></rect><g transform="matrix(0.6666666666666666,0,0,0.6666666666666666,249.40348860429566,687.3724061321559)"><svg viewBox="0 0 396 49" data-background-color="#265c4c" preserveAspectRatio="xMidYMid meet" height="185" width="1500" xmlns="http://www.w3.org/2000/svg" xmlns:xlink="http://www.w3.org/1999/xlink"><g id="tight-bounds" transform="matrix(1,0,0,1,0.2400000000000091,0.381773779927272)"><svg viewBox="0 0 395.52 48.23645244014544" height="48.23645244014544" width="395.52"><g><svg viewBox="0 0 488.0490060200933 59.521017059436915" height="48.23645244014544" width="395.52"><g><rect width="5.3409619344374395" height="59.521017059436915" x="73.20646834105528" y="0" fill="#ffffff" opacity="1" stroke-width="0" stroke="transparent" fill-opacity="1" class="rect-yte-0" data-fill-palette-color="primary" rx="1%" id="yte-0" data-palette-color="#fcef70"></rect></g><g transform="matrix(1,0,0,1,92.52900602009336,0.14806223149113507)"><svg viewBox="0 0 395.52 59.224892596454644" height="59.224892596454644" width="395.52"><g id="textblocktransform"><svg viewBox="0 0 395.52 59.224892596454644" height="59.224892596454644" width="395.52" id="textblock"><g><svg viewBox="0 0 395.52 59.224892596454644" height="59.224892596454644" width="395.52"><g transform="matrix(1,0,0,1,0,0)"><svg width="395.52" viewBox="1.95 -34.95 239.73000000000002 35.900000000000006" height="59.224892596454644" data-palette-color="#fcef70"><path d="M16.25-13.5L16.25-14.8 30.05-15.35Q30.1-13.65 30.13-11.33 30.15-9 30.2-6.8 30.25-4.6 30.28-3.13 30.3-1.65 30.3-1.65L30.3-1.65Q28.1-1.1 25.68-0.5 23.25 0.1 20.98 0.48 18.7 0.85 16.85 0.85L16.85 0.85Q14 0.85 11.33-0.15 8.65-1.15 6.6-3.15L6.6-3.15Q4.05-5.7 3-9.18 1.95-12.65 1.95-16.2L1.95-16.2Q1.95-19.9 2.95-23.48 3.95-27.05 6.55-29.65L6.55-29.65Q9.35-32.45 13.1-33.7 16.85-34.95 20.8-34.95L20.8-34.95Q24.05-34.95 26.65-33.65 29.25-32.35 31.25-29.3L31.25-29.3 28.35-26.45 27.75-26.5Q26.1-29.8 23.85-31.15 21.6-32.5 18.55-32.5L18.55-32.5Q15.05-32.5 12.7-31.18 10.35-29.85 8.97-27.6 7.6-25.35 7.03-22.6 6.45-19.85 6.45-17L6.45-17Q6.45-14.25 7.25-11.55 8.05-8.85 9.73-6.63 11.4-4.4 14.05-3.08 16.7-1.75 20.35-1.75L20.35-1.75Q22.85-1.75 25.05-2.25L25.05-2.25Q25.7-2.4 25.9-3.18 26.1-3.95 26.08-4.95 26.05-5.95 26.05-6.7L26.05-6.7Q26.05-7.1 26.1-8.03 26.15-8.95 26.08-10.05 26-11.15 25.68-11.95 25.35-12.75 24.65-12.8L24.65-12.8Q23-12.95 20.8-13.08 18.6-13.2 16.55-13.25L16.55-13.25 16.25-13.5ZM53.35-19.4L50.65-16.95 50.05-17.2Q49.85-18.25 49.25-19.18 48.65-20.1 47.4-20.1L47.4-20.1Q45.85-20.1 44.9-19.05 43.95-18 43.55-17L43.55-17Q43.2-16.2 43.15-14.7 43.1-13.2 43.15-11.53 43.2-9.85 43.2-8.5L43.2-8.5Q43.2-4.75 43.35-0.9L43.35-0.9 39.85 0.15 39.1-0.3Q39.35-2.95 39.52-6.05 39.7-9.15 39.7-12.15L39.7-12.15Q39.7-14.1 39.65-16.05 39.6-18 39.15-19.3 38.7-20.6 37.55-20.6L37.55-20.6Q36.7-20.6 35.65-20.1 34.6-19.6 33.65-19.05L33.65-19.05 33.05-19.9Q34.05-20.7 35.22-21.55 36.4-22.4 37.6-23.03 38.8-23.65 39.8-23.65L39.8-23.65Q41.5-23.65 42.35-22.65 43.2-21.65 43.4-20.05L43.4-20.05 43.9-19.85Q44.65-20.55 45.57-21.38 46.5-22.2 47.5-22.78 48.5-23.35 49.4-23.35L49.4-23.35Q52.95-23.35 53.35-19.4L53.35-19.4ZM65.95 0.7L65.95 0.7Q62.5 0.7 60.42-0.83 58.35-2.35 57.4-4.75 56.45-7.15 56.25-9.8L56.25-9.8Q56.25-12.4 56.72-15 57.2-17.6 59-19.55L59-19.55Q60.75-21.5 63.27-22.38 65.8-23.25 68.4-23.25L68.4-23.25Q72.1-23.25 74.25-21.6 76.4-19.95 77.35-17.35 78.3-14.75 78.3-11.95L78.3-11.95Q78.3-9.5 77.67-7.15 77.05-4.8 75.4-2.95L75.4-2.95Q73.65-0.95 71.12-0.13 68.6 0.7 65.95 0.7ZM60.95-15.8L60.95-15.8Q60.75-14.85 60.65-13.9 60.55-12.95 60.55-11.95L60.55-11.95Q60.55-10.4 60.85-8.55 61.15-6.7 61.87-5.08 62.6-3.45 63.92-2.4 65.25-1.35 67.3-1.35L67.3-1.35Q69.35-1.35 70.62-2.25 71.9-3.15 72.6-4.6 73.3-6.05 73.57-7.75 73.85-9.45 73.85-11L73.85-11Q73.85-12.55 73.6-14.33 73.35-16.1 72.67-17.7 72-19.3 70.67-20.3 69.35-21.3 67.25-21.3L67.25-21.3Q65.25-21.3 63.45-19.95 61.65-18.6 60.95-15.8ZM101.94-5.8L102.39-5.7 102.94-4.8Q100.64-2.5 97.87-0.78 95.09 0.95 91.74 0.95L91.74 0.95Q88.69 0.95 86.94-0.18 85.19-1.3 84.37-3.1 83.54-4.9 83.32-6.95 83.09-9 83.09-10.85L83.09-10.85Q83.09-14.6 84.72-17.53 86.34-20.45 89.19-22.1 92.04-23.75 95.74-23.75L95.74-23.75Q98.19-23.75 99.77-22.38 101.34-21 101.54-18.85L101.54-18.85 98.84-16.2 97.99-16.5Q97.64-19 96.49-20.4 95.34-21.8 93.74-21.8L93.74-21.8Q91.64-21.8 90.19-20.38 88.74-18.95 87.99-16.78 87.24-14.6 87.24-12.4L87.24-12.4Q87.24-10.8 87.54-9.05 87.84-7.3 88.59-5.78 89.34-4.25 90.72-3.3 92.09-2.35 94.29-2.35L94.29-2.35Q96.49-2.35 98.39-3.38 100.29-4.4 101.94-5.8L101.94-5.8ZM124.29-15.95L124.29-15.95 110.19-9.85Q110.34-8.3 111.02-6.65 111.69-5 113.07-3.9 114.44-2.8 116.64-2.8L116.64-2.8Q118.69-2.8 120.67-3.85 122.64-4.9 124.34-6.2L124.34-6.2 124.89-6.1 125.54-5.2Q123.99-3.75 122.17-2.43 120.34-1.1 118.32-0.25 116.29 0.6 114.14 0.6L114.14 0.6Q111.64 0.6 110.02-0.45 108.39-1.5 107.49-3.23 106.59-4.95 106.22-7.08 105.84-9.2 105.84-11.3L105.84-11.3Q105.84-13.5 106.39-15.6 106.94-17.7 108.39-19.4L108.39-19.4Q110.24-21.55 112.82-22.73 115.39-23.9 118.24-23.9L118.24-23.9Q121.49-23.9 123.42-21.9 125.34-19.9 125.34-17L125.34-17Q125.34-16.55 125.02-16.35 124.69-16.15 124.29-15.95ZM112.29-19.8L112.29-19.8Q110.84-18.25 110.42-16.55 109.99-14.85 109.99-13L109.99-13Q109.99-12.8 110.02-12.58 110.04-12.35 110.09-12.1L110.09-12.1 110.29-11.9 120.39-15.9Q120.64-16 120.84-16.3 121.04-16.6 121.04-17.2L121.04-17.2Q121.04-18.25 120.49-19.35 119.94-20.45 118.92-21.18 117.89-21.9 116.49-21.9L116.49-21.9Q115.24-21.9 114.17-21.35 113.09-20.8 112.29-19.8ZM146.84-19.4L144.14-16.95 143.54-17.2Q143.34-18.25 142.74-19.18 142.14-20.1 140.89-20.1L140.89-20.1Q139.34-20.1 138.39-19.05 137.44-18 137.04-17L137.04-17Q136.69-16.2 136.64-14.7 136.59-13.2 136.64-11.53 136.69-9.85 136.69-8.5L136.69-8.5Q136.69-4.75 136.84-0.9L136.84-0.9 133.34 0.15 132.59-0.3Q132.84-2.95 133.01-6.05 133.19-9.15 133.19-12.15L133.19-12.15Q133.19-14.1 133.14-16.05 133.09-18 132.64-19.3 132.19-20.6 131.04-20.6L131.04-20.6Q130.19-20.6 129.14-20.1 128.09-19.6 127.14-19.05L127.14-19.05 126.54-19.9Q127.54-20.7 128.71-21.55 129.89-22.4 131.09-23.03 132.29-23.65 133.29-23.65L133.29-23.65Q134.99-23.65 135.84-22.65 136.69-21.65 136.89-20.05L136.89-20.05 137.39-19.85Q138.14-20.55 139.06-21.38 139.99-22.2 140.99-22.78 141.99-23.35 142.89-23.35L142.89-23.35Q146.44-23.35 146.84-19.4L146.84-19.4ZM168.19-19.2L167.89-16.8Q166.44-16.9 164.94-17 163.44-17.1 161.99-17.1L161.99-17.1Q160.54-17.1 159.04-17.1 157.54-17.1 156.54-16.95 155.54-16.8 155.54-16.35L155.54-16.35 155.54-9.4Q155.54-8 155.66-6.38 155.79-4.75 156.29-3.8L156.29-3.8Q156.84-2.85 157.81-2.53 158.79-2.2 161.09-2.2L161.09-2.2Q161.99-2.2 162.79-2.23 163.59-2.25 164.74-2.3 165.89-2.35 167.81-2.5 169.74-2.65 172.79-2.9L172.79-2.9 173.04-2.65 172.39 0 152.99 0Q152.24-0.4 151.96-1.35 151.69-2.3 151.69-3.3L151.69-3.3 151.69-27.9Q151.69-28.45 151.64-29.4 151.59-30.35 151.24-31.1L151.24-31.1Q151.04-31.6 150.11-32.02 149.19-32.45 147.44-32.7L147.44-32.7 147.39-33.7 147.74-34.05 155.14-34.1Q156.89-34.1 159.04-34.18 161.19-34.25 163.34-34.33 165.49-34.4 167.24-34.4L167.24-34.4Q167.94-34.4 168.49-34.4 169.04-34.4 169.54-34.35L169.54-34.35 169.44-31.85 169.24-31.5Q167.94-31.6 166.21-31.68 164.49-31.75 162.84-31.83 161.19-31.9 160.06-31.95 158.94-32 158.79-32L158.79-32 156.79-32Q156.04-31.85 155.81-30.68 155.59-29.5 155.59-28.2L155.59-28.2 155.59-19.9Q155.59-19.25 156.54-19.23 157.49-19.2 158.89-19.2L158.89-19.2Q160.89-19.2 163.39-19.3 165.89-19.4 167.89-19.55L167.89-19.55 168.19-19.2ZM192.48-21.55L192.48-21.55 195.13-23.1 195.38-22.85Q195.08-17.4 195.08-11.95L195.08-11.95Q195.08-10.8 195.01-9.2 194.93-7.6 195.03-6.1 195.13-4.6 195.58-3.6 196.03-2.6 197.03-2.6L197.03-2.6Q197.58-2.6 198.53-2.9 199.48-3.2 200.28-3.5L200.28-3.5 200.63-2.3Q199.63-1.7 198.48-1.03 197.33-0.35 196.23 0.13 195.13 0.6 194.33 0.6L194.33 0.6Q192.93 0.6 192.33-0.25 191.73-1.1 191.48-2.35L191.48-2.35 190.73-2.55Q188.88-1.35 186.83-0.38 184.78 0.6 182.58 0.6L182.58 0.6Q180.48 0.6 179.08-0.3 177.68-1.2 176.83-2.65 175.98-4.1 175.61-5.83 175.23-7.55 175.23-9.25L175.23-9.25Q175.23-11.9 175.91-14.4 176.58-16.9 178.01-18.93 179.43-20.95 181.68-22.13 183.93-23.3 187.13-23.3L187.13-23.3Q188.33-23.3 189.81-22.85 191.28-22.4 192.48-21.55ZM191.38-4.95L191.38-4.95 191.38-16.45Q191.38-17.45 191.28-18.35 191.18-19.25 190.58-19.9L190.58-19.9Q189.93-20.6 189.03-21.08 188.13-21.55 187.18-21.55L187.18-21.55Q184.43-21.55 182.43-19.65L182.43-19.65Q181.58-18.85 180.71-16.7 179.83-14.55 179.73-10.75L179.73-10.75Q179.68-9.2 179.98-7.63 180.28-6.05 181.13-4.75L181.13-4.75Q181.93-3.5 183.31-3.1 184.68-2.7 186.08-2.7L186.08-2.7Q187.53-2.7 188.91-3.4 190.28-4.1 191.38-4.95ZM217.73-19.15L217.73-19.15 214.98-17.3 214.38-17.65Q214.28-19.3 213.56-20.43 212.83-21.55 211.13-21.55L211.13-21.55Q209.38-21.55 208.21-20.4 207.03-19.25 207.03-17.5L207.03-17.5Q207.03-16 208.41-14.93 209.78-13.85 212.53-12.7L212.53-12.7Q215.43-11.45 216.86-10.05 218.28-8.65 218.28-6.9L218.28-6.9Q218.28-4.35 216.86-2.63 215.43-0.9 213.26-0.03 211.08 0.85 208.88 0.85L208.88 0.85Q206.63 0.85 204.71-0.05 202.78-0.95 201.53-3.3L201.53-3.3 203.98-6.85 204.68-6.8Q204.83-4.5 206.43-2.78 208.03-1.05 210.38-1.05L210.38-1.05Q211.98-1.05 213.31-2.18 214.63-3.3 214.63-4.85L214.63-4.85Q214.63-6.15 213.88-7.05 213.13-7.95 212.01-8.6 210.88-9.25 209.68-9.75L209.68-9.75Q208.13-10.4 206.68-11.25 205.23-12.1 204.33-13.3 203.43-14.5 203.43-16.15L203.43-16.15Q203.43-18.4 204.73-20 206.03-21.6 208.03-22.45 210.03-23.3 212.08-23.3L212.08-23.3Q213.38-23.3 214.66-22.9 215.93-22.5 216.81-21.6 217.68-20.7 217.73-19.15ZM240.43-15.95L240.43-15.95 226.33-9.85Q226.48-8.3 227.15-6.65 227.83-5 229.2-3.9 230.58-2.8 232.78-2.8L232.78-2.8Q234.83-2.8 236.8-3.85 238.78-4.9 240.48-6.2L240.48-6.2 241.03-6.1 241.68-5.2Q240.13-3.75 238.3-2.43 236.48-1.1 234.45-0.25 232.43 0.6 230.28 0.6L230.28 0.6Q227.78 0.6 226.15-0.45 224.53-1.5 223.63-3.23 222.73-4.95 222.35-7.08 221.98-9.2 221.98-11.3L221.98-11.3Q221.98-13.5 222.53-15.6 223.08-17.7 224.53-19.4L224.53-19.4Q226.38-21.55 228.95-22.73 231.53-23.9 234.38-23.9L234.38-23.9Q237.63-23.9 239.55-21.9 241.48-19.9 241.48-17L241.48-17Q241.48-16.55 241.15-16.35 240.83-16.15 240.43-15.95ZM228.43-19.8L228.43-19.8Q226.98-18.25 226.55-16.55 226.13-14.85 226.13-13L226.13-13Q226.13-12.8 226.15-12.58 226.18-12.35 226.23-12.1L226.23-12.1 226.43-11.9 236.53-15.9Q236.78-16 236.98-16.3 237.18-16.6 237.18-17.2L237.18-17.2Q237.18-18.25 236.63-19.35 236.08-20.45 235.05-21.18 234.03-21.9 232.63-21.9L232.63-21.9Q231.38-21.9 230.3-21.35 229.23-20.8 228.43-19.8Z" opacity="1" transform="matrix(1,0,0,1,0,0)" fill="#ffffff" class="wordmark-text-0" data-fill-palette-color="primary" id="text-0"></path></svg></g></svg></g></svg></g></svg></g><g transform="matrix(1,0,0,1,0,0.1480622314911315)"><svg viewBox="0 0 59.22489259645465 59.22489259645465" height="59.22489259645465" width="59.22489259645465"><g><svg xmlns:x="http://ns.adobe.com/Extensibility/1.0/" xmlns:i="http://ns.adobe.com/AdobeIllustrator/10.0/" xmlns:graph="http://ns.adobe.com/Graphs/1.0/" xmlns="http://www.w3.org/2000/svg" xmlns:xlink="http://www.w3.org/1999/xlink" version="1.1" x="0" y="0" viewBox="7 7 50 50" enable-background="new 0 0 64 64" xml:space="preserve" height="59.22489259645465" width="59.22489259645465" class="icon-icon-0" data-fill-palette-color="accent" id="icon-0"><g fill="#3c856f" data-fill-palette-color="accent"><g fill="#3c856f" data-fill-palette-color="accent"><path d="M56.98 17.804L54.98 7.804A1 1 0 0 0 54 7H10A1 1 0 0 0 9.02 7.804L7.02 17.804A1 1 0 0 0 7 18C7 20.757 9.243 23 12 23A5 5 0 0 0 16 20.997 4.997 4.997 0 0 0 24 20.997 4.997 4.997 0 0 0 32 20.997 4.997 4.997 0 0 0 40 20.997 4.997 4.997 0 0 0 48 20.997 5 5 0 0 0 52 23C54.757 23 57 20.757 57 18A1 1 0 0 0 56.98 17.804" fill="#ffffff" data-fill-palette-color="accent"></path><path d="M39 45H40A1 1 0 1 1 40 47H39V57H47V37H39z" fill="#ffffff" data-fill-palette-color="accent"></path><rect x="17" y="37" width="14" height="10" fill="#ffffff" data-fill-palette-color="accent"></rect><path d="M54 27H10A1 1 0 0 0 9 28V56A1 1 0 0 0 10 57H37V36A1 1 0 0 1 38 35H48A1 1 0 0 1 49 36V57H54A1 1 0 0 0 55 56V28A1 1 0 0 0 54 27M33 48A1 1 0 0 1 32 49H16A1 1 0 0 1 15 48V36A1 1 0 0 1 16 35H32A1 1 0 0 1 33 36z" fill="#ffffff" data-fill-palette-color="accent"></path></g></g></svg><g></g></g></svg></g></svg></g><defs></defs></svg><rect width="395.52" height="48.23645244014544" fill="none" stroke="none" visibility="hidden"></rect></g></svg></g></svg>